<svg width="300" height="68" viewBox="0 0 300 68" fill="none" xmlns="http://www.w3.org/2000/svg">
<path fill-rule="evenodd" clip-rule="evenodd" d="M79.0752 17.291C82.1086 17.291 84.8389 17.7161 87.2656 18.5654C89.6923 19.3541 91.7554 20.4464 93.4541 21.8418C95.1526 23.2371 96.4874 24.9054 97.458 26.8467C98.4893 28.788 99.1265 30.8813 99.3691 33.126H93.1816C92.8176 30.0319 91.3916 27.5438 88.9043 25.6631C86.4169 23.7823 83.1099 22.8428 78.9844 22.8428C77.1038 22.8428 75.4053 23.0549 73.8887 23.4795C72.4328 23.8435 71.1584 24.4194 70.0664 25.208C69.0351 25.936 68.2462 26.8163 67.7002 27.8477C67.1543 28.8183 66.8809 29.9108 66.8809 31.124C66.881 32.7011 67.2759 33.9757 68.0645 34.9463C68.853 35.9166 69.9148 36.705 71.249 37.3115C72.6444 37.8575 74.1919 38.3429 75.8906 38.7676C77.65 39.1316 79.4397 39.4652 81.2598 39.7686C83.7472 40.1326 86.1438 40.5878 88.4492 41.1338C90.7545 41.6191 92.7866 42.3477 94.5459 43.3184C96.3052 44.2891 97.7011 45.5934 98.7324 47.2314C99.8243 48.8088 100.37 50.9022 100.37 53.5107C100.37 55.9979 99.8545 58.1518 98.8232 59.9717C97.8526 61.7308 96.4574 63.2174 94.6377 64.4307C92.8784 65.644 90.8152 66.5243 88.4492 67.0703C86.0832 67.677 83.5348 67.9805 80.8047 67.9805C77.4681 67.9805 74.4954 67.5855 71.8867 66.7969C69.2781 65.9476 67.033 64.7948 65.1523 63.3389C63.3324 61.8222 61.9365 60.0625 60.9658 58.0605C59.9952 55.998 59.4495 53.7527 59.3281 51.3262H65.5166C65.6987 54.6628 67.0633 57.3631 69.6113 59.4258C72.2201 61.4277 75.9513 62.4287 80.8047 62.4287C82.6854 62.4287 84.4148 62.277 85.9922 61.9736C87.63 61.6096 89.0563 61.094 90.2695 60.4268C91.4826 59.6988 92.4226 58.7881 93.0898 57.6963C93.8177 56.5437 94.1825 55.2089 94.1826 53.6924C94.1826 52.1152 93.8177 50.8408 93.0898 49.8701C92.3619 48.8996 91.3306 48.1105 89.9961 47.5039C88.6614 46.8973 87.0837 46.4119 85.2637 46.0479C83.4437 45.6839 81.4719 45.3502 79.3486 45.0469C77.1646 44.6829 74.9498 44.2588 72.7051 43.7734C70.4605 43.2881 68.4284 42.5896 66.6084 41.6797C64.8492 40.7091 63.423 39.4355 62.3311 37.8584C61.2391 36.2205 60.6935 34.1571 60.6934 31.6699C60.6934 29.4861 61.1177 27.5141 61.9668 25.7549C62.8161 23.9956 64.0301 22.5083 65.6074 21.2949C67.2454 20.021 69.1871 19.0501 71.4316 18.3828C73.7368 17.6549 76.2847 17.2911 79.0752 17.291ZM128.421 17.291C131.272 17.291 133.881 17.7161 136.247 18.5654C138.674 19.3541 140.797 20.5068 142.617 22.0234C144.498 23.4794 146.076 25.2994 147.35 27.4834C148.684 29.6067 149.625 32.0035 150.171 34.6729H143.801C143.376 32.9136 142.709 31.3055 141.799 29.8496C140.95 28.3936 139.887 27.1495 138.613 26.1182C137.339 25.0869 135.853 24.298 134.154 23.752C132.456 23.1453 130.544 22.8428 128.421 22.8428C125.63 22.8428 123.173 23.3583 121.05 24.3896C118.987 25.3603 117.227 26.7553 115.771 28.5752C114.376 30.3345 113.314 32.4279 112.586 34.8545C111.919 37.2204 111.585 39.7993 111.585 42.5898C111.585 45.3803 111.919 47.9895 112.586 50.416C113.314 52.8426 114.376 54.9671 115.771 56.7871C117.227 58.5462 119.017 59.9414 121.141 60.9727C123.264 61.9433 125.721 62.4287 128.512 62.4287C130.696 62.4287 132.667 62.095 134.427 61.4277C136.247 60.7604 137.794 59.8499 139.068 58.6973C140.403 57.484 141.495 56.0889 142.345 54.5117C143.194 52.8739 143.8 51.0535 144.164 49.0518H150.535C150.05 51.9636 149.169 54.5727 147.896 56.8779C146.682 59.1831 145.104 61.1852 143.163 62.8838C141.282 64.5217 139.099 65.7961 136.611 66.7061C134.124 67.5554 131.394 67.9805 128.421 67.9805C124.902 67.9805 121.717 67.3735 118.865 66.1602C116.075 64.9468 113.678 63.2173 111.676 60.9727C109.674 58.7281 108.127 56.0585 107.035 52.9648C105.943 49.8708 105.397 46.4118 105.396 42.5898C105.397 38.768 105.943 35.3098 107.035 32.2158C108.127 29.122 109.674 26.4828 111.676 24.2988C113.678 22.0542 116.105 20.3247 118.956 19.1113C121.807 17.8979 124.963 17.291 128.421 17.291ZM178.715 17.291C182.112 17.291 185.176 17.8678 187.906 19.0205C190.636 20.1732 192.973 21.8112 194.914 23.9346C196.855 25.9972 198.342 28.5149 199.373 31.4873C200.465 34.46 201.011 37.7672 201.011 41.4072V44.6836H162.243C162.425 47.1707 162.911 49.5066 163.699 51.6904C164.488 53.8744 165.55 55.7557 166.885 57.333C168.28 58.9102 169.98 60.1535 171.981 61.0635C174.044 61.9734 176.38 62.4287 178.988 62.4287C180.99 62.4287 182.78 62.1865 184.357 61.7012C185.935 61.2158 187.331 60.5174 188.544 59.6074C189.818 58.6368 190.879 57.4839 191.729 56.1494C192.638 54.8148 193.367 53.3585 193.913 51.7812H200.283C198.948 56.8166 196.4 60.7911 192.639 63.7031C188.938 66.5543 184.327 67.9804 178.807 67.9805C175.349 67.9805 172.193 67.3735 169.342 66.1602C166.551 64.9468 164.154 63.2173 162.152 60.9727C160.211 58.7281 158.695 56.0586 157.603 52.9648C156.511 49.8708 155.964 46.4118 155.964 42.5898C155.964 38.768 156.511 35.3098 157.603 32.2158C158.694 29.122 160.211 26.4828 162.152 24.2988C164.154 22.0541 166.551 20.3247 169.342 19.1113C172.193 17.898 175.318 17.2911 178.715 17.291ZM300 66.9795H294.54L294.267 57.1504C292.811 60.6084 290.535 63.2785 287.441 65.1592C284.408 67.0397 280.889 67.9805 276.885 67.9805C273.67 67.9804 270.757 67.3734 268.148 66.1602C265.54 64.9468 263.296 63.2474 261.415 61.0635C259.534 58.8189 258.078 56.1495 257.047 53.0557C256.016 49.901 255.499 46.442 255.499 42.6807C255.499 38.8588 256.016 35.4005 257.047 32.3066C258.078 29.1521 259.534 26.4828 261.415 24.2988C263.296 22.0542 265.54 20.3247 268.148 19.1113C270.757 17.898 273.669 17.2911 276.885 17.291C280.889 17.291 284.408 18.2618 287.441 20.2031C290.475 22.0839 292.659 24.6624 293.994 27.9385V0H300V66.9795ZM58.6973 66.9795H51.9629L42.4072 41.7715L41.4648 39.3047C27.1564 36.7051 17.1071 44.6663 13.9893 48.7793L13.6748 48.541L6.64355 66.9795H0L8.67383 44.75L8.41113 44.5508C8.612 44.2858 8.83311 44.0129 9.07031 43.7314L25.3896 1.91113H33.3076L58.6973 66.9795ZM231.001 17.291C233.731 17.291 236.188 17.7463 238.372 18.6562C240.556 19.5056 242.376 20.7497 243.832 22.3877C245.288 23.965 246.411 25.9066 247.199 28.2119C247.988 30.4565 248.383 32.944 248.383 35.6738V66.9795H242.376V37.7666C242.376 35.4617 242.103 33.3989 241.558 31.5791C241.072 29.6986 240.283 28.1207 239.191 26.8467C238.16 25.5121 236.856 24.5111 235.278 23.8438C233.701 23.1764 231.82 22.8428 229.636 22.8428C227.33 22.8428 225.237 23.2669 223.356 24.1162C221.476 24.9049 219.868 26.0274 218.533 27.4834C217.259 28.9394 216.258 30.6388 215.53 32.5801C214.863 34.5213 214.529 36.6149 214.529 38.8594V66.9795H208.523V18.292H213.983L214.165 28.667C214.772 26.7864 215.591 25.1473 216.622 23.752C217.714 22.3567 218.988 21.1738 220.444 20.2031C221.9 19.2325 223.508 18.5049 225.268 18.0195C227.027 17.5342 228.938 17.291 231.001 17.291ZM277.613 22.8428C275.005 22.8428 272.699 23.3281 270.697 24.2988C268.695 25.2695 267.026 26.6342 265.691 28.3936C264.357 30.1529 263.356 32.2463 262.688 34.6729C262.021 37.0387 261.688 39.678 261.688 42.5898C261.688 45.5018 262.021 48.172 262.688 50.5986C263.356 53.0252 264.357 55.1187 265.691 56.8779C267.026 58.6372 268.695 60.002 270.697 60.9727C272.699 61.9433 275.005 62.4287 277.613 62.4287C280.222 62.4287 282.527 61.9734 284.529 61.0635C286.592 60.1535 288.321 58.849 289.717 57.1504C291.173 55.3911 292.265 53.2976 292.993 50.8711C293.721 48.3839 294.085 45.623 294.085 42.5898C294.085 39.5567 293.721 36.826 292.993 34.3994C292.265 31.973 291.173 29.9105 289.717 28.2119C288.321 26.5132 286.592 25.2089 284.529 24.2988C282.527 23.3281 280.222 22.8428 277.613 22.8428ZM178.807 22.8428C176.259 22.8428 174.014 23.2669 172.072 24.1162C170.192 24.9656 168.554 26.1493 167.158 27.666C165.763 29.1827 164.67 30.9725 163.882 33.0352C163.093 35.037 162.578 37.2211 162.335 39.5869H194.731C194.549 37.1603 194.095 34.9453 193.367 32.9434C192.639 30.8809 191.607 29.1219 190.272 27.666C188.998 26.1493 187.391 24.9656 185.449 24.1162C183.569 23.267 181.354 22.8428 178.807 22.8428ZM18.3623 36.3057C23.6195 33.405 30.4975 31.282 38.6328 31.8916L29.3027 7.46289L18.3623 36.3057Z" fill="#731300"/>
</svg>
