<svg width="852" height="193" viewBox="0 0 852 193" fill="none" xmlns="http://www.w3.org/2000/svg">
<path d="M224.502 49.0898C233.114 49.0898 240.866 50.2956 247.756 52.707C254.645 54.9462 260.502 58.0463 265.324 62.0078C270.147 65.9694 273.936 70.7061 276.692 76.2178C279.621 81.7296 281.429 87.6729 282.118 94.0459H264.549C263.515 85.2615 259.468 78.1989 252.406 72.8594C245.344 67.5198 235.957 64.8496 224.244 64.8496C218.905 64.8496 214.081 65.4525 209.775 66.6582C205.642 67.6917 202.024 69.3282 198.924 71.5674C195.996 73.6343 193.757 76.1324 192.207 79.0605C190.657 81.8164 189.881 84.9165 189.881 88.3613C189.881 92.8397 191.001 96.457 193.24 99.2129C195.479 101.969 198.494 104.208 202.283 105.931C206.245 107.481 210.637 108.859 215.46 110.064C220.455 111.098 225.536 112.045 230.703 112.906C237.765 113.94 244.569 115.231 251.114 116.781C257.66 118.159 263.43 120.227 268.425 122.982C273.42 125.738 277.381 129.441 280.31 134.092C283.41 138.57 284.96 144.513 284.96 151.92C284.96 158.982 283.496 165.096 280.568 170.264C277.812 175.259 273.851 179.479 268.684 182.924C263.689 186.369 257.832 188.866 251.114 190.416C244.397 192.138 237.162 193 229.411 193C219.938 193 211.498 191.88 204.092 189.641C196.685 187.229 190.312 183.957 184.973 179.823C179.805 175.517 175.844 170.522 173.088 164.838C170.332 158.982 168.781 152.609 168.437 145.719H186.006C186.523 155.192 190.398 162.858 197.632 168.714C205.038 174.398 215.632 177.239 229.411 177.239C234.751 177.239 239.66 176.808 244.139 175.947C248.789 174.914 252.837 173.45 256.281 171.556C259.726 169.489 262.396 166.905 264.291 163.805C266.358 160.532 267.392 156.743 267.392 152.437C267.392 147.958 266.358 144.341 264.291 141.585C262.224 138.829 259.296 136.59 255.507 134.867C251.717 133.145 247.239 131.767 242.071 130.733C236.904 129.7 231.306 128.753 225.277 127.892C219.077 126.858 212.79 125.652 206.417 124.274C200.044 122.896 194.274 120.916 189.106 118.332C184.111 115.576 180.063 111.959 176.963 107.48C173.863 102.83 172.312 96.9731 172.312 89.9111C172.313 83.7106 173.518 78.1131 175.93 73.1182C178.341 68.1232 181.786 63.9028 186.264 60.458C190.914 56.8409 196.427 54.0851 202.8 52.1904C209.345 50.1236 216.579 49.0899 224.502 49.0898ZM364.598 49.0898C372.693 49.0898 380.1 50.2956 386.817 52.707C393.707 54.9462 399.736 58.2183 404.903 62.5244C410.243 66.6582 414.721 71.8257 418.338 78.0264C422.127 84.0549 424.797 90.8588 426.348 98.4375H408.262C407.056 93.4425 405.161 88.878 402.577 84.7441C400.166 80.6105 397.152 77.0794 393.535 74.1514C389.918 71.2233 385.698 68.9838 380.875 67.4336C376.052 65.7112 370.626 64.8496 364.598 64.8496C356.674 64.8496 349.698 66.314 343.67 69.2422C337.814 71.9981 332.818 75.9596 328.685 81.127C324.723 86.122 321.709 92.0644 319.642 98.9541C317.747 105.672 316.8 112.993 316.8 120.916C316.8 128.839 317.747 136.245 319.642 143.135C321.709 150.024 324.723 156.053 328.685 161.221C332.818 166.216 337.9 170.177 343.929 173.105C349.957 175.861 356.933 177.239 364.856 177.239C371.057 177.239 376.655 176.292 381.649 174.397C386.817 172.503 391.209 169.919 394.826 166.646C398.616 163.202 401.717 159.24 404.128 154.762C406.539 150.111 408.261 144.944 409.295 139.26H427.381C426.003 147.527 423.505 154.934 419.888 161.479C416.443 168.025 411.965 173.709 406.453 178.531C401.114 183.182 394.913 186.799 387.851 189.383C380.789 191.794 373.038 193 364.598 193C354.607 193 345.564 191.278 337.469 187.833C329.546 184.388 322.743 179.478 317.059 173.105C311.375 166.732 306.982 159.154 303.882 150.369C300.781 141.585 299.23 131.767 299.23 120.916C299.23 110.065 300.781 100.246 303.882 91.4619C306.982 82.6775 311.375 75.1852 317.059 68.9844C322.743 62.6113 329.632 57.7017 337.728 54.2568C345.823 50.812 354.78 49.0898 364.598 49.0898ZM507.388 49.0898C517.033 49.0899 525.731 50.7264 533.482 53.999C541.233 57.2717 547.865 61.9217 553.377 67.9502C558.889 73.8065 563.109 80.9547 566.037 89.3945C569.137 97.8345 570.688 107.222 570.688 117.557V126.858H460.623C461.14 133.92 462.518 140.551 464.757 146.752C466.996 152.953 470.011 158.292 473.8 162.771C477.761 167.249 482.585 170.781 488.269 173.364C494.125 175.948 500.757 177.239 508.163 177.239C513.847 177.239 518.928 176.551 523.406 175.173C527.884 173.795 531.846 171.814 535.291 169.23C538.908 166.475 541.923 163.201 544.334 159.412C546.918 155.623 548.985 151.489 550.535 147.011H568.62C564.831 161.307 557.597 172.589 546.918 180.856C536.411 188.952 523.32 193 507.646 193C497.828 193 488.871 191.278 480.775 187.833C472.852 184.388 466.049 179.478 460.365 173.105C454.853 166.732 450.547 159.154 447.446 150.369C444.346 141.585 442.796 131.767 442.796 120.916C442.796 110.065 444.346 100.246 447.446 91.4619C450.547 82.6775 454.853 75.1852 460.365 68.9844C466.049 62.6114 472.852 57.7017 480.775 54.2568C488.871 50.812 497.742 49.0898 507.388 49.0898ZM851.726 190.158H836.224L835.448 162.254C831.314 172.072 824.856 179.651 816.071 184.99C807.459 190.33 797.469 193 786.101 193C776.972 193 768.704 191.278 761.298 187.833C753.891 184.388 747.518 179.565 742.179 173.364C736.839 166.991 732.705 159.412 729.776 150.628C726.848 141.671 725.385 131.853 725.385 121.174C725.385 110.322 726.848 100.504 729.776 91.7197C732.705 82.7632 736.839 75.1851 742.179 68.9844C747.518 62.6113 753.891 57.7017 761.298 54.2568C768.704 50.8121 776.972 49.0898 786.101 49.0898C797.469 49.0898 807.459 51.8456 816.071 57.3574C824.683 62.697 830.884 70.0173 834.674 79.3184V0H851.726V190.158ZM166.646 190.158H147.527L120.398 118.59L116.949 109.562C78.0269 102.962 50.1148 123.259 39.6865 135.554L18.8604 190.158H0L72.084 5.42578H94.5625L166.646 190.158ZM655.831 49.0898C663.582 49.0898 670.558 50.3813 676.759 52.9648C682.96 55.3763 688.127 58.908 692.261 63.5586C696.395 68.0369 699.581 73.5485 701.82 80.0938C704.059 86.4667 705.18 93.5285 705.18 101.279V190.158H688.127V107.222C688.127 100.677 687.352 94.8205 685.802 89.6533C684.424 84.3137 682.184 79.8349 679.084 76.2178C676.156 72.4286 672.453 69.587 667.975 67.6924C663.496 65.7977 658.157 64.8496 651.956 64.8496C645.411 64.8496 639.468 66.0555 634.129 68.4668C628.789 70.7059 624.225 73.8927 620.436 78.0264C616.818 82.1602 613.976 86.9834 611.909 92.4951C610.015 98.0069 609.067 103.949 609.067 110.322V190.158H592.015V51.9316H607.517L608.033 81.3857C609.756 76.0462 612.082 71.3952 615.01 67.4336C618.11 63.4722 621.727 60.1132 625.86 57.3574C629.994 54.6015 634.56 52.5342 639.555 51.1562C644.55 49.7784 649.975 49.0899 655.831 49.0898ZM788.168 64.8496C780.761 64.8496 774.215 66.2285 768.531 68.9844C762.847 71.7403 758.111 75.6154 754.321 80.6104C750.532 85.6054 747.69 91.5478 745.795 98.4375C743.9 105.155 742.953 112.648 742.953 120.916C742.953 129.183 743.9 136.762 745.795 143.651C747.69 150.541 750.532 156.484 754.321 161.479C758.111 166.474 762.847 170.35 768.531 173.105C774.215 175.861 780.761 177.239 788.168 177.239C795.574 177.239 802.12 175.948 807.804 173.364C813.66 170.781 818.569 167.077 822.53 162.254C826.664 157.259 829.764 151.316 831.831 144.427C833.898 137.365 834.932 129.528 834.932 120.916C834.932 112.304 833.898 104.552 831.831 97.6621C829.764 90.7726 826.664 84.9165 822.53 80.0938C818.569 75.271 813.66 71.568 807.804 68.9844C802.12 66.2285 795.574 64.8497 788.168 64.8496ZM507.646 64.8496C500.411 64.8497 494.038 66.0554 488.526 68.4668C483.187 70.8782 478.537 74.2379 474.575 78.5439C470.614 82.85 467.513 87.9309 465.273 93.7871C463.034 99.4711 461.571 105.672 460.882 112.39H552.86C552.344 105.5 551.051 99.2124 548.984 93.5283C546.917 87.6723 543.989 82.6777 540.2 78.5439C536.583 74.2378 532.019 70.8782 526.507 68.4668C521.167 66.0554 514.88 64.8496 507.646 64.8496ZM51.1006 105.795C66.1551 97.0628 86.33 90.4655 110.422 92.4697L83.1943 21.1865L51.1006 105.795Z" fill="white"/>
</svg>
